<?xml version="1.0" encoding="UTF-8"?>
<svg width="488px" height="373px" viewBox="0 0 488 373" version="1.1" xmlns="http://www.w3.org/2000/svg" xmlns:xlink="http://www.w3.org/1999/xlink">
    <!-- Generator: Sketch 41.1 (35376) - http://www.bohemiancoding.com/sketch -->
    <title>chronometer</title>
    <desc>Created with Sketch.</desc>
    <defs></defs>
    <g id="Page-2" stroke="none" stroke-width="1" fill="none" fill-rule="evenodd">
        <g id="chronometer">
            <g id="Capa_1">
                <g id="Group">
                    <path d="M459.5,111.562 C463,115.062 468.6,115.062 472,111.562 L484.5,99.062 C488,95.562 488,89.962 484.5,86.562 L456.2,58.262 C452.7,54.762 447.1,54.762 443.7,58.262 L431.2,70.762 C427.7,74.262 427.7,79.862 431.2,83.262 L432.4,84.462 L423.6,93.262 C401.4,75.662 374.5,63.962 345,60.562 L345,44.562 L354.7,44.562 C359.6,44.562 363.5,40.562 363.5,35.762 L363.5,9.762 C363.5,4.862 359.5,0.962 354.7,0.962 L298.5,0.962 C293.6,0.962 289.7,4.962 289.7,9.762 L289.7,35.762 C289.7,40.662 293.7,44.562 298.5,44.562 L308.2,44.562 L308.2,60.562 C278.7,64.062 251.7,75.762 229.6,93.262 L220.8,84.462 L222,83.262 C225.5,79.762 225.5,74.162 222,70.762 L209.5,58.262 C206,54.762 200.4,54.762 197,58.262 L168.7,86.562 C165.2,90.062 165.2,95.662 168.7,99.062 L181.2,111.562 C184.7,115.062 190.3,115.062 193.7,111.562 L194.9,110.362 L203.7,119.162 C182.7,145.762 170.2,179.362 170.2,215.762 C170.2,301.962 240.4,372.162 326.6,372.162 C412.8,372.162 483,301.962 483,215.762 C483,179.362 470.4,145.762 449.5,119.162 L458.3,110.362 L459.5,111.562 Z M326.6,335.962 C260.4,335.962 206.5,282.062 206.5,215.862 C206.5,149.662 260.4,95.762 326.6,95.762 C392.8,95.762 446.7,149.662 446.7,215.862 C446.7,282.062 392.8,335.962 326.6,335.962 Z" id="Shape" fill="#A2FAA3"></path>
                    <path d="M63.5,257.763 C54.9,257.763 48,264.763 48,273.263 C48,281.863 55,288.763 63.5,288.763 L147.6,288.763 C149.3,288.763 150.8,288.463 152.3,287.963 C148.3,278.263 145,268.163 142.7,257.663 L63.5,257.663 L63.5,257.763 Z" id="Shape" fill="#376996"></path>
                    <path d="M152.2,143.962 C150.8,143.562 149.2,143.162 147.6,143.162 L15.5,143.162 C6.9,143.162 0,150.162 0,158.662 C0,167.262 7,174.162 15.5,174.162 L142.6,174.162 C144.9,163.962 148.1,153.762 152.2,143.962 Z" id="Shape" fill="#376996"></path>
                    <path d="M138,215.862 C138,210.662 138.3,205.562 138.7,200.462 L37.1,200.462 C28.5,200.462 21.6,207.462 21.6,215.962 C21.6,224.462 28.6,231.462 37.1,231.462 L138.6,231.462 C138.3,226.362 138,221.163 138,215.862 Z" id="Shape" fill="#A2FAA3"></path>
                    <path d="M402.1,171.163 C399.5,166.863 394.1,165.163 389.6,167.463 L335.5,193.963 C328.8,191.263 321,191.563 314.3,195.463 C303,202.163 299.2,216.763 305.9,228.063 C312.6,239.363 327.2,243.163 338.5,236.463 C345.2,232.463 349.2,225.763 350,218.663 L399.3,183.963 C403.5,181.062 404.7,175.562 402.1,171.163 Z M336.6,218.462 C335.1,224.062 329.4,227.362 323.9,225.962 C318.3,224.462 315,218.762 316.4,213.262 C317.9,207.662 323.6,204.362 329.1,205.762 C334.7,207.163 338,212.962 336.6,218.462 Z" id="Shape" fill="#376996"></path>
                    <path d="M360.4,156.262 C365.1,158.962 371.1,157.262 373.7,152.562 C376.4,147.862 374.7,141.862 370,139.262 C365.3,136.562 359.4,138.262 356.7,142.962 C354.9,146.162 355.1,149.862 356.8,152.762 C357.7,154.062 358.9,155.363 360.4,156.262 Z" id="Shape" fill="#376996"></path>
                    <path d="M326,147.262 C331.4,147.262 335.7,142.862 335.7,137.462 C335.7,132.062 331.3,127.762 325.9,127.762 C320.5,127.762 316.2,132.162 316.2,137.562 C316.2,139.362 316.7,141.062 317.5,142.462 C319.2,145.363 322.4,147.363 326,147.262 Z" id="Shape" fill="#A2FAA3"></path>
                    <path d="M327.3,284.663 C321.9,284.763 317.6,289.163 317.6,294.563 C317.6,296.363 318.1,297.963 318.9,299.363 C320.6,302.263 323.8,304.263 327.4,304.163 C332.8,304.063 337.1,299.663 337,294.263 C337.1,289.062 332.7,284.663 327.3,284.663 Z" id="Shape" fill="#A2FAA3"></path>
                    <path d="M361.5,275.163 C356.9,277.863 355.3,283.863 358.1,288.463 C360.8,293.163 366.8,294.663 371.5,291.863 C376.1,289.163 377.7,283.163 374.9,278.563 C372.1,273.962 366.1,272.462 361.5,275.163 Z" id="Shape" fill="#376996"></path>
                    <path d="M399.7,246.163 C395,243.563 389,245.163 386.4,249.863 C384.6,253.063 384.8,256.663 386.5,259.663 C387.3,261.063 388.6,262.363 390.1,263.163 C394.8,265.863 400.8,264.163 403.4,259.463 C406,254.763 404.4,248.763 399.7,246.163 Z" id="Shape" fill="#A2FAA3"></path>
                    <path d="M257.8,216.763 C257.8,211.363 253.3,207.063 248,207.063 C242.6,207.163 238.3,211.563 238.3,216.963 C238.3,218.763 238.8,220.363 239.6,221.763 C241.3,224.663 244.5,226.663 248.1,226.563 C253.6,226.562 257.9,222.163 257.8,216.763 Z" id="Shape" fill="#376996"></path>
                    <path d="M254.1,247.562 C249.5,250.262 247.9,256.262 250.7,260.862 C253.4,265.462 259.4,267.062 264.1,264.262 C268.7,261.562 270.2,255.562 267.5,250.862 C264.7,246.362 258.7,244.763 254.1,247.562 Z" id="Shape" fill="#A2FAA3"></path>
                    <path d="M395.3,215.362 C395.3,217.162 395.8,218.762 396.7,220.262 C398.4,223.162 401.6,225.062 405.2,225.062 C410.6,225.062 414.9,220.562 414.9,215.262 C414.9,209.862 410.5,205.562 405.1,205.562 C399.6,205.562 395.2,210.062 395.3,215.362 Z" id="Shape" fill="#376996"></path>
                    <path d="M253.4,186.062 C258.1,188.762 264.1,187.062 266.7,182.362 C269.3,177.662 267.7,171.762 262.9,169.062 C258.2,166.462 252.3,168.062 249.6,172.762 C247.9,175.862 248,179.562 249.7,182.562 C250.6,183.962 251.8,185.163 253.4,186.062 Z" id="Shape" fill="#A2FAA3"></path>
                    <path d="M291.5,156.962 C291.5,156.962 291.6,156.962 291.6,156.862 C291.7,156.862 291.7,156.862 291.7,156.762 L291.8,156.762 C296.4,154.062 297.9,148.062 295.2,143.462 C292.5,138.762 286.5,137.262 281.8,139.962 C281.8,139.962 281.7,139.962 281.7,140.062 C281.6,140.062 281.6,140.162 281.5,140.162 C276.9,142.862 275.3,148.862 278.1,153.462 C280.9,158.163 286.9,159.663 291.5,156.962 Z" id="Shape" fill="#376996"></path>
                    <path d="M292.8,275.862 C288.1,273.162 282.1,274.862 279.5,279.562 C277.7,282.762 277.9,286.462 279.6,289.362 C280.4,290.762 281.7,292.062 283.2,292.962 C287.9,295.562 293.9,293.862 296.5,289.262 C299.2,284.462 297.5,278.562 292.8,275.862 Z" id="Shape" fill="#376996"></path>
                </g>
            </g>
        </g>
    </g>
</svg>