<?xml version="1.0" encoding="UTF-8"?>
<svg width="56px" height="42px" viewBox="0 0 56 42" version="1.1" xmlns="http://www.w3.org/2000/svg" xmlns:xlink="http://www.w3.org/1999/xlink">
    <!-- Generator: Sketch 41.1 (35376) - http://www.bohemiancoding.com/sketch -->
    <title>marathon</title>
    <desc>Created with Sketch.</desc>
    <defs></defs>
    <g id="Page-2" stroke="none" stroke-width="1" fill="none" fill-rule="evenodd">
        <g id="marathon" fill="#376996">
            <g id="Capa_1">
                <g id="Group">
                    <path d="M21.021,10.977 C18.75,8.412 15.722,7 12.493,7 C9.264,7 6.236,8.412 3.966,10.977 C-0.646,16.188 -0.646,24.665 3.966,29.876 L12.493,39.509 L21.02,29.876 C25.633,24.665 25.633,16.188 21.021,10.977 Z M19.523,28.55 L12.494,36.491 L5.464,28.55 C1.498,24.071 1.498,16.782 5.464,12.303 C7.349,10.173 9.846,9 12.493,9 C15.14,9 17.638,10.173 19.522,12.303 C23.488,16.782 23.488,24.07 19.523,28.55 Z" id="Shape"></path>
                    <path d="M46.747,24.507 L53.211,17.221 C56.689,13.301 56.689,6.925 53.211,3.005 C51.491,1.067 49.195,0 46.746,0 C44.298,0 42.002,1.067 40.282,3.005 C36.804,6.925 36.804,13.301 40.282,17.221 L46.747,24.507 Z M41.778,4.333 C43.113,2.828 44.877,2 46.746,2 C48.616,2 50.38,2.828 51.715,4.333 C54.543,7.52 54.543,12.706 51.715,15.893 L46.747,21.494 L41.778,15.893 C38.95,12.706 38.95,7.52 41.778,4.333 Z" id="Shape"></path>
                    <path d="M47.604,36.517 C47.065,36.396 46.53,36.734 46.409,37.273 C46.294,37.783 46.071,38.252 45.746,38.665 C45.405,39.099 45.479,39.728 45.914,40.069 C46.098,40.213 46.315,40.283 46.531,40.283 C46.828,40.283 47.121,40.152 47.318,39.901 C47.822,39.261 48.182,38.505 48.36,37.713 C48.481,37.173 48.143,36.638 47.604,36.517 Z" id="Shape"></path>
                    <path d="M29.995,31 C29.562,30.999 29.141,30.922 28.743,30.77 C28.231,30.575 27.65,30.832 27.452,31.348 C27.256,31.864 27.515,32.442 28.03,32.639 C28.656,32.877 29.315,32.999 29.993,33 L30.35,33 C30.903,33 31.35,32.553 31.35,32 C31.35,31.447 30.903,31 30.35,31 L29.995,31 L29.995,31 Z" id="Shape"></path>
                    <path d="M27.621,24.676 C27.802,24.676 27.984,24.627 28.149,24.525 C28.592,24.249 29.082,24.08 29.603,24.022 C30.152,23.961 30.548,23.467 30.488,22.918 C30.428,22.369 29.937,21.977 29.384,22.033 C28.562,22.124 27.79,22.39 27.09,22.827 C26.621,23.119 26.479,23.736 26.771,24.205 C26.961,24.509 27.287,24.676 27.621,24.676 Z" id="Shape"></path>
                    <path d="M19.064,40 L17.064,40 C16.511,40 16.064,40.447 16.064,41 C16.064,41.553 16.511,42 17.064,42 L19.064,42 C19.617,42 20.064,41.553 20.064,41 C20.064,40.447 19.616,40 19.064,40 Z" id="Shape"></path>
                    <path d="M33.493,24 L35.493,24 C36.046,24 36.493,23.553 36.493,23 C36.493,22.447 36.046,22 35.493,22 L33.493,22 C32.94,22 32.493,22.447 32.493,23 C32.493,23.553 32.94,24 33.493,24 Z" id="Shape"></path>
                    <path d="M41.493,24 C42.046,24 42.493,23.553 42.493,23 C42.493,22.447 42.046,22 41.493,22 L39.493,22 C38.94,22 38.493,22.447 38.493,23 C38.493,23.553 38.94,24 39.493,24 L41.493,24 Z" id="Shape"></path>
                    <path d="M34.351,31 C33.798,31 33.351,31.447 33.351,32 C33.351,32.553 33.798,33 34.351,33 L36.351,33 C36.904,33 37.351,32.553 37.351,32 C37.351,31.447 36.904,31 36.351,31 L34.351,31 Z" id="Shape"></path>
                    <path d="M43.351,32 C43.351,31.447 42.904,31 42.351,31 L40.351,31 C39.798,31 39.351,31.447 39.351,32 C39.351,32.553 39.798,33 40.351,33 L42.351,33 C42.903,33 43.351,32.553 43.351,32 Z" id="Shape"></path>
                    <path d="M37.064,40 L35.064,40 C34.511,40 34.064,40.447 34.064,41 C34.064,41.553 34.511,42 35.064,42 L37.064,42 C37.617,42 38.064,41.553 38.064,41 C38.064,40.447 37.616,40 37.064,40 Z" id="Shape"></path>
                    <path d="M31.064,40 L29.064,40 C28.511,40 28.064,40.447 28.064,41 C28.064,41.553 28.511,42 29.064,42 L31.064,42 C31.617,42 32.064,41.553 32.064,41 C32.064,40.447 31.616,40 31.064,40 Z" id="Shape"></path>
                    <path d="M42.993,40 L41.063,40 C40.51,40 40.063,40.447 40.063,41 C40.063,41.553 40.51,42 41.063,42 L43.034,41.999 L43.063,40.999 L43.063,41.999 C43.616,41.999 44.028,41.552 44.028,40.999 C44.028,40.447 43.546,40 42.993,40 Z" id="Shape"></path>
                    <path d="M47.531,34.719 C47.747,34.719 47.966,34.649 48.148,34.505 C48.583,34.163 48.657,33.534 48.316,33.101 C47.813,32.462 47.164,31.934 46.437,31.573 C45.94,31.326 45.342,31.529 45.096,32.023 C44.85,32.518 45.052,33.118 45.546,33.364 C46.009,33.593 46.423,33.93 46.743,34.338 C46.941,34.588 47.234,34.719 47.531,34.719 Z" id="Shape"></path>
                    <path d="M26.029,29.855 C26.553,29.682 26.839,29.117 26.667,28.592 C26.552,28.241 26.493,27.874 26.493,27.504 C26.494,27.353 26.503,27.202 26.521,27.055 C26.59,26.507 26.202,26.006 25.654,25.938 C25.089,25.875 24.605,26.259 24.537,26.805 C24.509,27.031 24.494,27.261 24.493,27.499 C24.493,28.087 24.585,28.665 24.766,29.217 C24.905,29.638 25.296,29.905 25.716,29.905 C25.82,29.905 25.926,29.89 26.029,29.855 Z" id="Shape"></path>
                    <path d="M25.064,40 L23.064,40 C22.511,40 22.064,40.447 22.064,41 C22.064,41.553 22.511,42 23.064,42 L25.064,42 C25.617,42 26.064,41.553 26.064,41 C26.064,40.447 25.616,40 25.064,40 Z" id="Shape"></path>
                    <path d="M46.993,15 C50.025,15 52.493,12.532 52.493,9.5 C52.493,6.468 50.025,4 46.993,4 C43.961,4 41.493,6.468 41.493,9.5 C41.493,12.532 43.961,15 46.993,15 Z M46.993,6 C48.923,6 50.493,7.57 50.493,9.5 C50.493,11.43 48.923,13 46.993,13 C45.063,13 43.493,11.43 43.493,9.5 C43.493,7.57 45.064,6 46.993,6 Z" id="Shape"></path>
                    <path d="M12.493,13 C9.184,13 6.493,15.691 6.493,19 C6.493,22.309 9.184,25 12.493,25 C15.802,25 18.493,22.309 18.493,19 C18.493,15.691 15.802,13 12.493,13 Z M12.493,23 C10.287,23 8.493,21.206 8.493,19 C8.493,16.794 10.287,15 12.493,15 C14.699,15 16.493,16.794 16.493,19 C16.493,21.206 14.699,23 12.493,23 Z" id="Shape"></path>
                </g>
            </g>
        </g>
    </g>
</svg>
