<?xml version="1.0" encoding="UTF-8"?>
<svg width="504px" height="321px" viewBox="0 0 504 321" version="1.1" xmlns="http://www.w3.org/2000/svg" xmlns:xlink="http://www.w3.org/1999/xlink">
    <!-- Generator: Sketch 52.3 (67297) - http://www.bohemiancoding.com/sketch -->
    <title>shoes</title>
    <desc>Created with Sketch.</desc>
    <g id="Page-1" stroke="none" stroke-width="1" fill="none" fill-rule="evenodd">
        <g id="shoes" transform="translate(-3.000000, -97.000000)">
            <rect id="Rectangle" x="0" y="0" width="510" height="510"></rect>
            <path d="M243.998,314.999 C238.478,314.999 233.998,319.479 233.998,324.999 C233.998,330.519 238.478,334.999 243.998,334.999 C249.518,334.999 253.998,330.519 253.998,324.999 C253.998,319.479 249.518,314.999 243.998,314.999 Z" id="Path" fill="#376996"></path>
            <path d="M497.80544,256.429256 C479.94644,246.290256 458.20044,243.020256 439.01444,240.135256 C432.61044,239.172256 426.55944,238.262256 421.34744,237.177256 C418.45944,236.490256 411.56844,233.961256 396.00544,225.062256 L396.90044,223.869256 C400.21344,219.450256 399.31544,213.182256 394.89644,209.869256 C390.47544,206.558256 384.20944,207.455256 380.89644,211.873256 L378.75844,214.723256 C371.95744,210.497256 364.55944,205.756256 356.63344,200.546256 L360.02944,196.018256 C363.34244,191.599256 362.44444,185.330256 358.02444,182.018256 C353.60344,178.706256 347.33644,179.604256 344.02544,184.023256 L339.97144,189.428256 C332.89144,184.639256 325.49544,179.560256 317.85044,174.238256 L320.19744,171.110256 C323.51044,166.692256 322.61544,160.423256 318.19744,157.110256 C313.77844,153.796256 307.51044,154.692256 304.19744,159.110256 L301.48244,162.729256 C266.06644,137.560256 259.90744,129.422256 249.19344,124.723256 C237.95944,119.798256 230.05244,124.313256 225.39644,128.969256 L208.01744,146.349256 C203.84844,150.517256 197.81544,159.492256 204.25044,172.758256 C206.70644,177.821256 210.52144,182.600256 214.56444,187.221256 L212.01444,188.303256 C197.28744,194.547256 181.25644,197.306256 164.36344,196.511256 C108.96744,193.932256 63.6704403,155.700256 61.7694403,154.074256 C59.4004403,152.048256 56.2184403,151.241256 53.1744403,151.895256 C50.1264403,152.548256 47.5564403,154.585256 46.2264403,157.404256 L45.3084403,159.372256 C43.8014403,162.599256 42.3124403,165.957256 40.8824403,169.353256 C22.0574403,214.082256 14.0754403,264.569256 20.1904403,316.119256 C20.1804403,316.306256 20.1624403,316.492256 20.1624403,316.682256 L20.1624403,336.682256 C20.1624403,353.504256 33.1514403,366.682256 49.7324403,366.682256 L480.15844,366.682256 C493.50844,366.682256 506.06244,361.479256 515.51044,352.033256 C524.88844,342.654256 530.07544,330.202256 530.14244,316.944256 C530.14244,316.922256 530.14644,316.901256 530.14644,316.880256 C530.14744,316.825256 530.14644,316.772256 530.14744,316.717256 C530.14744,316.706256 530.14844,316.694256 530.14844,316.683256 C530.14844,316.679256 530.14844,316.676256 530.14844,316.672256 C530.63344,289.158256 519.75444,268.889256 497.80544,256.429256 Z M59.1994403,177.398256 C77.7904403,190.758256 107.58244,207.140256 140.92344,213.708256 L127.87244,225.420256 C127.73844,225.540256 127.60744,225.664256 127.48044,225.791256 C116.42144,236.849256 96.4774403,239.869256 82.0734403,232.668256 C74.2544403,228.758256 65.5594403,226.682256 56.7004403,226.682256 L43.8784403,226.682256 C47.3934403,209.823256 52.5294403,193.295256 59.1994403,177.398256 Z M501.36644,337.891256 C495.69744,343.560256 488.16544,346.682256 480.15744,346.682256 L49.7324403,346.682256 C44.3664403,346.682256 40.1624403,342.289256 40.1624403,336.682256 L40.1624403,326.684256 C106.72844,326.699256 440.80744,326.768256 508.44144,326.703256 C506.97144,330.865256 504.57844,334.679256 501.36644,337.891256 Z M312.15944,306.681256 L333.72044,277.931256 C337.03344,273.513256 336.13844,267.245256 331.72044,263.931256 C327.30044,260.618256 321.03244,261.514256 317.72044,265.932256 L287.15944,306.682256 L252.15944,306.682256 L287.76944,259.202256 C291.08244,254.784256 290.18744,248.516256 285.76944,245.202256 C281.35044,241.888256 275.08244,242.784256 271.76944,247.202256 L227.16044,306.681256 L197.16044,306.681256 L226.35044,267.761256 C229.66444,263.343256 228.76844,257.074256 224.35044,253.761256 C219.93244,250.447256 213.66344,251.343256 210.35044,255.761256 L172.16044,306.680256 L39.2954403,306.680256 C37.4574403,286.696256 37.8554403,266.584256 40.4764403,246.681256 L56.7024403,246.681256 C62.6454403,246.681256 68.2624403,248.121256 73.1304403,250.556256 C81.1934403,254.587256 90.2564403,256.527256 99.3434403,256.527256 C114.94744,256.527256 130.62544,250.806256 141.42144,240.134256 L167.62144,216.621256 C186.00644,216.942256 203.54744,213.618256 219.82744,206.716256 L235.14744,200.216256 C238.06044,198.980256 240.21644,196.439256 240.96044,193.364256 C241.70444,190.289256 240.95044,187.043256 238.92544,184.611256 C237.04244,182.350256 235.01344,180.090256 233.05044,177.905256 C228.69744,173.059256 224.19744,168.048256 222.24844,164.030256 C221.06444,161.589256 221.34144,161.313256 222.16244,160.491256 L239.54244,143.111256 C239.77644,142.877256 239.95744,142.724256 240.08244,142.628256 C245.10444,143.615256 256.66544,155.400256 289.48244,178.734256 L279.53244,191.999256 C276.21844,196.417256 277.11244,202.685256 281.53044,205.999256 C285.95144,209.314256 292.21944,208.416256 295.53044,204.000256 L305.84644,190.247256 C313.48044,195.564256 320.87744,200.650256 327.96244,205.448256 L318.60344,217.929256 C315.28944,222.346256 316.18344,228.615256 320.60144,231.929256 C325.01644,235.242256 331.28744,234.350256 334.60144,229.931256 L344.61644,216.576256 C352.49344,221.764256 359.88644,226.519256 366.71644,230.783256 L359.29444,240.679256 C355.97944,245.096256 356.87244,251.365256 361.29044,254.679256 C365.71244,257.996256 371.98044,257.096256 375.29044,252.682256 L383.92044,241.177256 C403.95944,252.796256 412.31944,255.615256 416.94144,256.683256 C417.00944,256.699256 417.07844,256.714256 417.14744,256.728256 C422.94044,257.939256 429.30544,258.896256 436.04444,259.910256 C476.30944,265.965256 505.73244,273.128256 509.71044,306.680256 L312.15944,306.680256 L312.15944,306.681256 Z" id="Shape" fill="#376996" fill-rule="nonzero" transform="translate(274.165235, 244.634827) rotate(-345.000000) translate(-274.165235, -244.634827) "></path>
        </g>
    </g>
</svg>
