<?xml version="1.0" encoding="iso-8859-1"?>
<!-- Generator: Adobe Illustrator 19.0.0, SVG Export Plug-In . SVG Version: 6.00 Build 0)  -->
<svg xmlns="http://www.w3.org/2000/svg" xmlns:xlink="http://www.w3.org/1999/xlink" version="1.1" id="Capa_1" x="0px" y="0px" viewBox="0 0 512 512" style="enable-background:new 0 0 512 512;" xml:space="preserve" width="512px" height="512px">
<g>
  <g>
    <path d="M505.294,374.601c-84.534-36.364-169.213-15.401-251.104,4.868c-39.44,9.762-80.223,19.857-120.043,23.162    c-44.118,3.66-82.668-1.568-117.855-15.987c-3.986-1.633-8.453-0.853-11.659,2.036c-3.216,2.898-4.459,7.276-3.244,11.426    c4.036,13.789,8.142,27.694,12.207,41.354c-4.256,10.827-8.557,21.603-12.79,32.052c-2.257,5.573,0.389,12.038,5.901,14.41    c33.552,14.433,67.118,19.834,100.533,19.833c50.773-0.002,101.185-12.478,150.573-24.703    c39.439-9.762,80.222-19.857,120.042-23.162c44.118-3.66,82.667,1.567,117.851,15.986c3.986,1.634,8.453,0.854,11.659-2.033    c3.217-2.898,4.461-7.276,3.246-11.427c-4.017-13.723-8.122-27.628-12.207-41.356c4.263-10.841,8.562-21.616,12.789-32.048    C513.452,383.439,510.806,376.974,505.294,374.601z M483.867,416.811c-0.905,2.305-1.014,4.881-0.307,7.256    c3.446,11.573,6.908,23.283,10.322,34.91c-80.721-29.917-161.498-9.921-239.694,9.434c-40.043,9.912-81.45,20.161-121.874,23.309    c-43.914,3.425-80.918-1.714-116.068-16.15c3.945-9.771,7.937-19.797,11.886-29.855c0.906-2.306,1.016-4.884,0.309-7.26    c-3.432-11.525-6.895-23.234-10.323-34.909c29.746,11.024,59.485,15.271,89.114,15.27c50.776-0.003,101.201-12.48,150.582-24.704    c40.043-9.911,81.449-20.16,121.873-23.308c43.917-3.422,80.917,1.715,116.067,16.15    C491.814,396.712,487.823,406.737,483.867,416.811z" fill="#376996"/>
  </g>
</g>
<g>
  <g>
    <path d="M493.878,20.481c-6.891-9.572-17.596-15.466-29.374-16.167c-0.777-0.045-1.564-0.069-2.336-0.069    c-17.596,0-33.089,11.872-37.677,28.869l-29.007,107.458c-7.173,26.572-30.675,45.462-57.889,47.038c-0.004,0-0.008,0-0.011,0    c-0.576,0.033-1.102,0.057-1.606,0.076c-0.689,0.022-1.378,0.043-2.071,0.043h-39.999c-0.553-0.581-1.04-1.31-1.43-2.099    c2.85-1.842,5.62-3.903,8.297-6.207c11.208-9.652,18.445-23.385,20.441-38.443c8.545-1.436,15.075-8.885,15.075-17.832v-11.68    c0-5.071-2.098-9.792-5.679-13.158V57.48c0-21.996-17.895-39.892-39.892-39.892h-69.435c-21.996,0-39.892,17.896-39.892,39.892    v40.832c-3.582,3.365-5.679,8.087-5.679,13.158v11.68c0,8.947,6.53,16.396,15.075,17.832c1.996,15.058,9.233,28.791,20.442,38.443    c2.449,2.109,4.973,4.023,7.568,5.745c-0.415,0.968-0.987,1.869-1.647,2.562H178.61c-0.726,0-1.448-0.021-2.17-0.046    c-0.618-0.024-1.263-0.057-1.945-0.101c-27.034-1.749-50.327-20.579-57.462-47.011L88.629,35.355    C83.696,17.078,67.028,4.313,48.097,4.313c-11.711,0-22.511,5.332-29.63,14.628c-7.121,9.297-9.454,21.114-6.402,32.42    l47.073,174.383c5.553,20.569,17.446,38.26,34.395,51.161c28.106,21.395,47.459,52.989,54.493,88.962l1.547,7.912    c0.704,3.599,3.859,6.096,7.394,6.096c0.48,0,0.967-0.045,1.456-0.141c4.088-0.799,6.754-4.761,5.954-8.85l-1.547-7.912    c-7.744-39.605-29.11-74.434-60.161-98.07c-14.274-10.865-24.291-25.765-28.968-43.09L60.71,173.685l45.54-18.41    c11.154,25.739,35.367,43.785,63.345,47.01l56.174,86.329c-4.543,6.199-7.233,13.836-7.233,22.092    c0,20.657,16.806,37.464,37.464,37.464s37.464-16.807,37.464-37.464c0-8.269-2.698-15.917-7.253-22.121l56.116-86.238    c28.164-3.03,52.595-21.07,63.863-46.897l45.566,18.42l-14.323,53.058c-3.557,13.177-14.127,27.728-27.587,37.972    c-20.631,15.706-37.327,36.753-48.283,60.868c-1.723,3.793-0.046,8.264,3.747,9.987c1.012,0.46,2.072,0.678,3.115,0.678    c2.867,0,5.608-1.644,6.871-4.424c9.928-21.852,25.034-40.906,43.686-55.105c15.981-12.164,28.632-29.808,33.014-46.044    l46.505-172.276C502.686,43.083,501.173,30.62,493.878,20.481z M56.75,159.016L26.629,47.429    c-1.819-6.736-0.429-13.776,3.814-19.316c4.242-5.538,10.676-8.715,17.654-8.715c12.129,0,22.808,8.178,25.969,19.888    l27.437,101.638L56.75,159.016z M196.477,57.48h0.001c0-13.679,11.128-24.807,24.807-24.807h69.435    c13.679,0,24.807,11.128,24.807,24.807v38.048c-0.887,0.22-1.815,0.49-2.766,0.821V71.237c0-12.043-9.798-21.842-21.841-21.842    h-12.993c-5.133,0-10.148,1.789-14.122,5.038l-1.275,1.042c-1.837,1.503-4.156,2.33-6.528,2.33c-2.372,0-4.691-0.827-6.529-2.33    l-1.274-1.042c-3.974-3.249-8.989-5.038-14.122-5.038h-12.993c-12.043,0-21.841,9.798-21.841,21.842v25.112    c-0.95-0.331-1.878-0.601-2.766-0.821V57.48z M205.323,133.527c-0.088-4.101-3.438-7.38-7.541-7.38h-3.986    c-1.653,0-2.997-1.344-2.997-2.997v-11.68c0-0.632,0.189-1.169,0.469-1.604c0.568,0.088,1.21,0.213,1.889,0.393    c0.216,0.058,0.435,0.121,0.654,0.19c0.04,0.012,0.079,0.022,0.12,0.035c0.301,0.097,0.604,0.205,0.904,0.324    c0.024,0.009,0.048,0.02,0.071,0.03c0.27,0.109,0.538,0.227,0.802,0.355c0.049,0.024,0.097,0.049,0.146,0.073    c0.235,0.117,0.466,0.245,0.692,0.379c0.063,0.037,0.126,0.074,0.188,0.113c0.212,0.131,0.416,0.274,0.616,0.421    c0.063,0.047,0.128,0.089,0.19,0.138c0.249,0.194,0.489,0.399,0.714,0.621c0.002,0.002,0.005,0.004,0.007,0.006    c1.802,1.783,4.186,2.725,6.616,2.725c1.224,0,2.461-0.24,3.641-0.732c3.529-1.473,5.809-4.894,5.809-8.716V71.237    c0-3.726,3.031-6.757,6.756-6.757h12.993c1.662,0,3.287,0.579,4.575,1.632l1.274,1.042c4.524,3.699,10.233,5.735,16.076,5.735    c5.843,0,11.552-2.037,16.076-5.735l1.275-1.042c1.288-1.053,2.912-1.632,4.574-1.632h12.993c3.725,0,6.756,3.031,6.756,6.757    v34.983c0,3.822,2.28,7.243,5.809,8.716c3.203,1.336,6.813,0.79,9.481-1.334c0.268-0.202,0.53-0.417,0.776-0.66    c0.217-0.215,0.45-0.412,0.691-0.601c0.062-0.049,0.126-0.096,0.189-0.142c0.194-0.144,0.394-0.28,0.599-0.409    c0.06-0.038,0.118-0.078,0.179-0.114c0.249-0.149,0.503-0.288,0.763-0.417c0.094-0.046,0.189-0.088,0.284-0.132    c0.166-0.078,0.333-0.152,0.502-0.222c0.132-0.055,0.263-0.109,0.395-0.159c0.114-0.043,0.228-0.082,0.342-0.123    c1.069-0.375,2.131-0.615,3.048-0.76c0.283,0.435,0.472,0.974,0.472,1.608v11.68c0,1.653-1.344,2.997-2.997,2.997h-3.986    c-4.103,0-7.453,3.279-7.541,7.38c-0.291,13.535-6.032,26.097-15.75,34.466c-3.304,2.845-6.777,5.235-10.404,7.182    c-0.048,0.025-0.096,0.048-0.143,0.074c-7.497,3.995-15.654,6.076-24.382,6.186c-8.954-0.112-17.312-2.29-24.969-6.492    c-0.173-0.109-0.349-0.212-0.531-0.306c-3.275-1.846-6.423-4.055-9.43-6.643C211.354,159.625,205.614,147.063,205.323,133.527z     M281.568,196.435c-6.875,6.396-15.963,10.032-25.427,10.062c-0.039,0-0.077,0-0.116,0c-9.765,0-19.148-3.838-26.119-10.603    c0.87-1.187,1.639-2.462,2.287-3.8c7.46,2.851,15.385,4.333,23.725,4.427c0.028,0,0.056,0,0.084,0s0.056,0,0.084,0    c8.043-0.09,15.696-1.485,22.922-4.14C279.729,193.821,280.592,195.181,281.568,196.435z M215.705,202.816l1.385,1.526    c9.952,10.962,24.134,17.24,38.935,17.24c0.054,0,0.109,0,0.163,0c14.859-0.046,29.07-6.418,38.988-17.481l1.152-1.285h2.5    l-42.848,65.847l-42.847-65.847H215.705z M187.939,202.816h7.197v0l47.446,72.914c-0.238,0.091-0.472,0.192-0.708,0.288    c-0.187,0.076-0.375,0.149-0.56,0.228c-1.068,0.455-2.114,0.962-3.136,1.516c-0.024,0.013-0.047,0.027-0.071,0.04    c-0.338,0.184-0.676,0.368-1.008,0.563L187.939,202.816z M256,333.086c-12.34,0-22.379-10.039-22.379-22.379    c0-6.378,2.686-12.136,6.981-16.216c0.411-0.391,0.833-0.767,1.269-1.123c0.094-0.077,0.192-0.15,0.287-0.226    c0.456-0.36,0.921-0.705,1.401-1.027c0.072-0.049,0.147-0.093,0.22-0.141c0.518-0.338,1.045-0.66,1.587-0.953    c0.015-0.008,0.031-0.016,0.047-0.024c1.185-0.637,2.424-1.167,3.703-1.58c0.002,0,0.003-0.001,0.005-0.001    c0.643-0.208,1.295-0.385,1.957-0.534c0.006-0.001,0.012-0.003,0.018-0.004c0.661-0.148,1.329-0.266,2.005-0.354    c0.004,0,0.009-0.001,0.013-0.001c0.678-0.088,1.362-0.145,2.05-0.17c0.006,0,0.012-0.001,0.018-0.002    c0.272-0.01,0.544-0.021,0.818-0.021c0.266,0,0.529,0.011,0.792,0.02c0.005,0,0.01,0.001,0.015,0.001    c0.69,0.024,1.375,0.081,2.054,0.168c0.003,0,0.005,0.001,0.008,0.001c2.705,0.347,5.307,1.186,7.689,2.463    c0.018,0.01,0.037,0.019,0.056,0.028c0.543,0.293,1.072,0.615,1.59,0.953c0.072,0.047,0.145,0.091,0.216,0.139    c0.484,0.324,0.953,0.671,1.412,1.033c0.091,0.072,0.184,0.142,0.274,0.216c0.442,0.36,0.87,0.74,1.286,1.135    c4.298,4.08,6.986,9.841,6.986,16.22C278.379,323.047,268.34,333.086,256,333.086z M274.875,278.349    c-0.301-0.176-0.607-0.341-0.912-0.508c-0.057-0.031-0.114-0.064-0.171-0.095c-1.009-0.545-2.041-1.046-3.095-1.495    c-0.222-0.095-0.448-0.182-0.673-0.273c-0.213-0.086-0.423-0.177-0.637-0.259l47.439-72.903h7.199L274.875,278.349z     M483.937,54.653l-28.222,104.549l-44.752-18.091l28.092-104.065c2.816-10.43,12.32-17.715,23.113-17.715    c0.48,0,0.964,0.015,1.444,0.042c7.225,0.431,13.794,4.047,18.022,9.921C484.732,33.599,487.793,40.371,483.937,54.653z" fill="#376996"/>
  </g>
</g>
<g>
</g>
<g>
</g>
<g>
</g>
<g>
</g>
<g>
</g>
<g>
</g>
<g>
</g>
<g>
</g>
<g>
</g>
<g>
</g>
<g>
</g>
<g>
</g>
<g>
</g>
<g>
</g>
<g>
</g>
</svg>
