<?xml version="1.0" encoding="iso-8859-1"?>
<!-- Generator: Adobe Illustrator 19.0.0, SVG Export Plug-In . SVG Version: 6.00 Build 0)  -->
<svg version="1.1" id="Capa_1" xmlns="http://www.w3.org/2000/svg" xmlns:xlink="http://www.w3.org/1999/xlink" x="0px" y="0px"
	 viewBox="0 0 512 512" style="enable-background:new 0 0 512 512;" xml:space="preserve">
<path style="fill:#FED9A8;" d="M487.756,24.889c-5.56-7.724-14.196-12.479-23.696-13.044c-0.633-0.037-1.265-0.056-1.892-0.056
	c-14.194,0-26.693,9.578-30.395,23.292l-29.007,107.458c-8.382,31.05-36.698,52.735-68.859,52.735h-42.479
	c-4.434-2.483-7.405-8.13-7.405-13.209v-27.342H255.53l0,0h-28.493v27.342c0,5.08-2.971,10.726-7.405,13.209h-41.023
	c-32.162,0-60.477-21.686-68.859-52.735L81.348,37.32C77.3,22.326,63.627,11.855,48.097,11.855c-9.344,0-17.962,4.254-23.642,11.672
	c-5.681,7.418-7.543,16.846-5.108,25.867L66.42,223.778c5.115,18.946,16.07,35.243,31.681,47.126
	c29.579,22.516,49.938,55.726,57.327,93.516l12.766,65.275c1.887,9.652,10.395,16.657,20.229,16.657h135.67
	c9.834,0,18.342-7.005,20.229-16.657l12.765-65.275c7.39-37.79,27.749-71.001,57.327-93.516
	c15.612-11.883,26.568-28.179,31.681-47.126l46.506-172.277C495.082,42.313,493.315,32.613,487.756,24.889z"/>
<path style="fill:#F4C28C;" d="M487.756,24.889c-5.56-7.724-14.196-12.479-23.696-13.044c-0.633-0.037-1.265-0.056-1.892-0.056
	c-2.208,0-4.367,0.257-6.466,0.7c-0.157,0.854-0.337,1.706-0.566,2.553l-46.505,172.276c-5.114,18.947-16.069,35.242-31.681,47.126
	c-29.578,22.516-49.937,55.726-57.327,93.516l-23.577,118.392h28.047c9.834,0,18.342-7.005,20.229-16.657l12.765-65.275
	c7.39-37.79,27.749-71.001,57.327-93.516c15.612-11.883,26.568-28.179,31.681-47.126l46.506-172.277
	C495.082,42.313,493.315,32.613,487.756,24.889z"/>
<path style="fill:#FED9A8;" d="M318.209,100.929h-3.97v-4.663V85.122c0-15.736-6.46-30.985-18.385-41.253
	c-9.349-8.05-22.491-15.077-39.851-15.27c-17.36,0.194-30.502,7.22-39.851,15.27c-11.925,10.268-18.385,25.516-18.385,41.253v11.145
	v4.663h-3.97c-5.821,0-10.54,4.719-10.54,10.54v11.68c0,5.821,4.719,10.54,10.54,10.54h3.986
	c0.328,15.297,6.756,30.02,18.369,40.019c9.349,8.05,22.491,15.077,39.851,15.27c17.36-0.194,30.502-7.22,39.851-15.27
	c11.613-9.999,18.041-24.723,18.369-40.019h3.986c5.821,0,10.54-4.719,10.54-10.54v-11.68
	C328.749,105.648,324.03,100.929,318.209,100.929z"/>
<path style="fill:#F4C28C;" d="M318.209,100.929h-3.97v-4.663V85.122c0-15.736-6.46-30.985-18.385-41.253
	c-3.415-2.94-7.339-5.74-11.789-8.12l-0.012,97.94c-0.328,15.297-6.756,30.02-18.369,40.019
	c-6.416,5.524-14.618,10.565-24.744,13.248c4.618,1.223,9.63,1.961,15.063,2.022c17.36-0.193,30.502-7.22,39.851-15.27
	c11.613-9.999,18.041-24.723,18.369-40.019h3.986c5.821,0,10.54-4.719,10.54-10.54v-11.68
	C328.749,105.648,324.03,100.929,318.209,100.929z"/>
<path style="fill:#FFB125;" d="M290.72,25.13h-34.717h-34.717c-17.866,0-32.349,14.483-32.349,32.349v44.637
	c0,0,8.908-0.202,14.632,5.464c1.192,1.18,3.218,0.318,3.218-1.359V71.236c0-7.897,6.402-14.299,14.299-14.299h12.992
	c3.408,0,6.71,1.178,9.348,3.335l1.274,1.042c3.19,2.608,7.183,4.032,11.302,4.032s8.113-1.425,11.302-4.032l1.274-1.042
	c2.638-2.157,5.941-3.335,9.348-3.335h12.992c7.897,0,14.299,6.402,14.299,14.299v34.984c0,1.677,2.026,2.539,3.218,1.359
	c5.724-5.665,14.632-5.464,14.632-5.464V57.48C323.069,39.614,308.586,25.13,290.72,25.13z"/>
<path style="fill:#FF901D;" d="M290.72,25.13h-12.906v31.812c0.038,0,0.076-0.005,0.114-0.005h12.992
	c7.897,0,14.299,6.402,14.299,14.299v34.984c0,1.677,2.026,2.539,3.218,1.359c5.724-5.665,14.632-5.464,14.632-5.464V57.48
	C323.069,39.614,308.586,25.13,290.72,25.13z"/>
<path id="SVGCleanerId_0" style="fill:#2D5872;" d="M401.872,145.57c-9.358,29.42-36.862,49.703-67.965,49.703H292.96l-3.4,3.792
	c-17.826,19.883-48.937,19.979-66.886,0.207l-3.631-4h-40.435c-31.169,0-58.724-20.367-68.025-49.886l-58.898,23.81l14.733,54.58
	c5.115,18.946,16.07,35.243,31.681,47.126c29.579,22.516,49.938,55.726,57.327,93.516l12.766,65.275
	c1.887,9.652,10.395,16.657,20.229,16.657h135.67c9.859,0,18.337-6.981,20.229-16.656l12.766-65.276
	c7.39-37.79,27.749-71.001,57.327-93.516c15.612-11.883,26.568-28.179,31.681-47.126l14.683-54.393L401.872,145.57z"/>
<g>
	<path id="SVGCleanerId_0_1_" style="fill:#2D5872;" d="M401.872,145.57c-9.358,29.42-36.862,49.703-67.965,49.703H292.96
		l-3.4,3.792c-17.826,19.883-48.937,19.979-66.886,0.207l-3.631-4h-40.435c-31.169,0-58.724-20.367-68.025-49.886l-58.898,23.81
		l14.733,54.58c5.115,18.946,16.07,35.243,31.681,47.126c29.579,22.516,49.938,55.726,57.327,93.516l12.766,65.275
		c1.887,9.652,10.395,16.657,20.229,16.657h135.67c9.859,0,18.337-6.981,20.229-16.656l12.766-65.276
		c7.39-37.79,27.749-71.001,57.327-93.516c15.612-11.883,26.568-28.179,31.681-47.126l14.683-54.393L401.872,145.57z"/>
</g>
<path style="fill:#1D4859;" d="M344.322,429.695l12.765-65.275c7.39-37.79,27.749-71.001,57.327-93.516
	c15.612-11.883,26.568-28.179,31.681-47.126l14.683-54.393l-42.652-17.243l-9.496,35.177c-5.114,18.947-16.069,35.242-31.681,47.126
	c-29.578,22.516-49.937,55.726-57.327,93.516l-23.577,118.392h28.047C333.927,446.352,342.435,439.347,344.322,429.695z"/>
<path style="fill:#FF4C4C;" d="M498.567,468.899c-163.148-66.854-325.721,82.277-488.88,12.095c-1.791-0.77-2.622-2.844-1.89-4.651
	c4.499-11.105,8.935-22.235,13.315-33.387c0.294-0.749,0.329-1.576,0.099-2.347c-4.228-14.198-8.422-28.405-12.584-42.621
	c-0.845-2.887,2.022-5.503,4.805-4.362c163.15,66.853,325.724-82.278,488.88-12.095c1.791,0.77,2.622,2.844,1.89,4.651
	c-4.499,11.104-8.935,22.234-13.315,33.385c-0.294,0.749-0.329,1.576-0.099,2.347c4.228,14.198,8.422,28.405,12.584,42.623
	C504.218,467.423,501.351,470.039,498.567,468.899z"/>
<path style="fill:#EA2828;" d="M493.589,431.4c-158.479-60.721-316.427,78.193-474.908,17.701
	c-3.592,9.095-7.212,18.179-10.884,27.242c-0.732,1.807,0.099,3.881,1.89,4.651c163.16,70.183,325.732-78.948,488.88-12.095
	c2.783,1.14,5.65-1.475,4.805-4.362C500.137,453.483,496.864,442.441,493.589,431.4z"/>
<path style="fill:#E1EFFB;" d="M333.907,195.273h-21.172l-56.755,87.219l-56.754-87.219h-20.618c-1.573,0-3.134-0.066-4.688-0.168
	l73.208,112.507c1.948,2.994,5.279,4.8,8.851,4.8c3.572,0,6.902-1.806,8.851-4.8l73.187-112.472
	C336.655,195.219,335.286,195.273,333.907,195.273z"/>
<circle style="fill:#FD9727;" cx="256" cy="310.711" r="29.921"/>
<path style="fill:#F4C28C;" d="M284.023,182.064v-0.209c-7.721,4.131-17.021,7.001-28.02,7.124
	c-3.116-0.035-6.091-0.297-8.938-0.739v20.474c0,1.504,0.266,3.056,0.748,4.563c14.843,2.734,30.8-2.001,41.748-14.212l3.4-3.792
	h-1.533C286.994,192.791,284.023,187.144,284.023,182.064z"/>
<path d="M505.294,374.601c-84.534-36.364-169.213-15.401-251.104,4.868c-39.44,9.762-80.223,19.857-120.043,23.162
	c-44.118,3.66-82.668-1.568-117.855-15.987c-3.986-1.633-8.453-0.853-11.659,2.036c-3.216,2.898-4.459,7.276-3.244,11.426
	c4.036,13.789,8.142,27.694,12.207,41.354c-4.256,10.827-8.557,21.603-12.79,32.052c-2.257,5.573,0.389,12.038,5.901,14.41
	c33.552,14.433,67.118,19.834,100.533,19.833c50.773-0.002,101.185-12.478,150.573-24.703
	c39.439-9.762,80.222-19.857,120.042-23.162c44.118-3.66,82.667,1.567,117.851,15.986c3.986,1.634,8.453,0.854,11.659-2.033
	c3.217-2.898,4.461-7.276,3.246-11.427c-4.017-13.723-8.122-27.628-12.207-41.356c4.263-10.841,8.562-21.616,12.789-32.048
	C513.452,383.439,510.806,376.974,505.294,374.601z M501.428,461.919L501.428,461.919c-0.005-0.003-0.008-0.004-0.013-0.006
	C501.419,461.916,501.423,461.917,501.428,461.919z M483.867,416.811c-0.905,2.305-1.014,4.881-0.307,7.256
	c3.446,11.573,6.908,23.283,10.322,34.91c-80.721-29.917-161.498-9.921-239.694,9.434c-40.043,9.912-81.45,20.161-121.874,23.309
	c-43.914,3.425-80.918-1.714-116.068-16.15c3.945-9.771,7.937-19.797,11.886-29.855c0.906-2.306,1.016-4.884,0.309-7.26
	c-3.432-11.525-6.895-23.234-10.323-34.909c29.746,11.024,59.485,15.271,89.114,15.27c50.776-0.003,101.201-12.48,150.582-24.704
	c40.043-9.911,81.449-20.16,121.873-23.308c43.917-3.422,80.917,1.715,116.067,16.15
	C491.814,396.712,487.823,406.737,483.867,416.811z"/>
<path d="M59.138,225.744c5.553,20.569,17.446,38.26,34.395,51.161c28.106,21.395,47.459,52.989,54.493,88.962l1.547,7.912
	c0.704,3.599,3.859,6.096,7.394,6.096c0.48,0,0.967-0.045,1.456-0.141c4.088-0.799,6.754-4.761,5.954-8.85l-1.547-7.912
	c-7.744-39.605-29.11-74.434-60.161-98.07c-14.274-10.865-24.291-25.765-28.968-43.09L60.71,173.685l45.54-18.41
	c11.154,25.739,35.367,43.785,63.345,47.01l56.174,86.329c-4.543,6.199-7.233,13.836-7.233,22.092
	c0,20.657,16.806,37.464,37.464,37.464s37.464-16.807,37.464-37.464c0-8.269-2.698-15.917-7.253-22.121l56.116-86.238
	c28.164-3.03,52.595-21.07,63.863-46.897l45.566,18.42l-14.323,53.058c-3.557,13.177-14.127,27.728-27.587,37.972
	c-20.631,15.706-37.327,36.753-48.283,60.868c-1.723,3.793-0.046,8.264,3.747,9.987c1.012,0.46,2.072,0.678,3.115,0.678
	c2.867,0,5.608-1.644,6.871-4.424c9.928-21.852,25.034-40.906,43.686-55.105c15.981-12.164,28.632-29.808,33.014-46.044
	l46.505-172.276c4.185-15.501,2.672-27.964-4.623-38.103c-6.891-9.572-17.596-15.466-29.374-16.167
	c-0.777-0.045-1.564-0.069-2.336-0.069c-17.596,0-33.089,11.872-37.677,28.869l-29.007,107.458
	c-7.173,26.572-30.675,45.462-57.889,47.038c-0.004,0-0.008,0-0.011,0c-0.576,0.033-1.102,0.057-1.606,0.076
	c-0.689,0.022-1.378,0.043-2.071,0.043h-21.172h-18.827c-0.553-0.581-1.04-1.31-1.43-2.099c2.85-1.842,5.62-3.903,8.297-6.207
	c11.208-9.652,18.445-23.385,20.441-38.443c8.545-1.436,15.075-8.885,15.075-17.832v-11.68c0-5.071-2.098-9.792-5.679-13.158V57.48
	c0-21.996-17.895-39.892-39.892-39.892h-69.435c-21.996,0-39.892,17.896-39.892,39.892v40.832
	c-3.582,3.365-5.679,8.087-5.679,13.158v11.68c0,8.947,6.53,16.396,15.075,17.832c1.996,15.058,9.233,28.791,20.442,38.443
	c2.449,2.109,4.973,4.023,7.568,5.745c-0.415,0.968-0.987,1.869-1.647,2.562h-17.925h-20.618c-0.726,0-1.448-0.021-2.17-0.046
	c-0.618-0.024-1.263-0.057-1.945-0.101c-27.034-1.749-50.327-20.579-57.462-47.011L88.629,35.355
	C83.696,17.078,67.028,4.313,48.097,4.313c-11.711,0-22.511,5.332-29.63,14.628c-7.121,9.297-9.454,21.114-6.402,32.42
	L59.138,225.744z M439.055,37.046c2.816-10.43,12.32-17.715,23.113-17.715c0.48,0,0.964,0.015,1.444,0.042
	c7.225,0.431,13.794,4.047,18.022,9.921c3.098,4.305,6.159,11.077,2.303,25.359l-28.222,104.549l-44.752-18.091L439.055,37.046z
	 M256,333.086c-12.34,0-22.379-10.039-22.379-22.379c0-6.378,2.686-12.136,6.981-16.216c0.411-0.391,0.833-0.767,1.269-1.123
	c0.094-0.077,0.192-0.15,0.287-0.226c0.456-0.36,0.921-0.705,1.401-1.027c0.072-0.049,0.147-0.093,0.22-0.141
	c0.518-0.338,1.045-0.66,1.587-0.953c0.015-0.008,0.031-0.016,0.047-0.024c1.185-0.637,2.424-1.167,3.703-1.58
	c0.002,0,0.003-0.001,0.005-0.001c0.643-0.208,1.295-0.385,1.957-0.534c0.006-0.001,0.012-0.003,0.018-0.004
	c0.661-0.148,1.329-0.266,2.005-0.354c0.004,0,0.009-0.001,0.013-0.001c0.678-0.088,1.362-0.145,2.05-0.17
	c0.006,0,0.012-0.001,0.018-0.002c0.272-0.01,0.544-0.021,0.818-0.021c0.266,0,0.529,0.011,0.792,0.02
	c0.005,0,0.01,0.001,0.015,0.001c0.69,0.024,1.375,0.081,2.054,0.168c0.003,0,0.005,0.001,0.008,0.001
	c2.705,0.347,5.307,1.186,7.689,2.463c0.018,0.01,0.037,0.019,0.056,0.028c0.543,0.293,1.072,0.615,1.59,0.953
	c0.072,0.047,0.145,0.091,0.216,0.139c0.484,0.324,0.953,0.671,1.412,1.033c0.091,0.072,0.184,0.142,0.274,0.216
	c0.442,0.36,0.87,0.74,1.286,1.135c4.298,4.08,6.986,9.841,6.986,16.22C278.379,323.047,268.34,333.086,256,333.086z
	 M316.826,202.816h7.199l-49.15,75.533c-0.301-0.176-0.607-0.341-0.912-0.508c-0.057-0.031-0.114-0.064-0.171-0.095
	c-1.009-0.545-2.041-1.046-3.095-1.495c-0.222-0.095-0.448-0.182-0.673-0.273c-0.213-0.086-0.423-0.177-0.637-0.259L316.826,202.816
	z M196.478,57.48c0-13.679,11.128-24.807,24.807-24.807h69.435c13.679,0,24.807,11.128,24.807,24.807v38.048
	c-0.887,0.22-1.815,0.49-2.766,0.821V71.237c0-12.043-9.798-21.842-21.841-21.842h-12.993c-5.133,0-10.148,1.789-14.122,5.038
	l-1.275,1.042c-1.837,1.503-4.156,2.33-6.528,2.33s-4.691-0.827-6.529-2.33l-1.274-1.042c-3.974-3.249-8.989-5.038-14.122-5.038
	h-12.993c-12.043,0-21.841,9.798-21.841,21.842v25.112c-0.95-0.331-1.878-0.601-2.766-0.821L196.478,57.48L196.478,57.48z
	 M205.323,133.527c-0.088-4.101-3.438-7.38-7.541-7.38h-3.986c-1.653,0-2.997-1.344-2.997-2.997v-11.68
	c0-0.632,0.189-1.169,0.469-1.604c0.568,0.088,1.21,0.213,1.889,0.393c0.216,0.058,0.435,0.121,0.654,0.19
	c0.04,0.012,0.079,0.022,0.12,0.035c0.301,0.097,0.604,0.205,0.904,0.324c0.024,0.009,0.048,0.02,0.071,0.03
	c0.27,0.109,0.538,0.227,0.802,0.355c0.049,0.024,0.097,0.049,0.146,0.073c0.235,0.117,0.466,0.245,0.692,0.379
	c0.063,0.037,0.126,0.074,0.188,0.113c0.212,0.131,0.416,0.274,0.616,0.421c0.063,0.047,0.128,0.089,0.19,0.138
	c0.249,0.194,0.489,0.399,0.714,0.621c0.002,0.002,0.005,0.004,0.007,0.006c1.802,1.783,4.186,2.725,6.616,2.725
	c1.224,0,2.461-0.24,3.641-0.732c3.529-1.473,5.809-4.894,5.809-8.716V71.237c0-3.726,3.031-6.757,6.756-6.757h12.993
	c1.662,0,3.287,0.579,4.575,1.632l1.274,1.042c4.524,3.699,10.233,5.735,16.076,5.735s11.552-2.037,16.076-5.735l1.275-1.042
	c1.288-1.053,2.912-1.632,4.574-1.632h12.993c3.725,0,6.756,3.031,6.756,6.757v34.983c0,3.822,2.28,7.243,5.809,8.716
	c3.203,1.336,6.813,0.79,9.481-1.334c0.268-0.202,0.53-0.417,0.776-0.66c0.217-0.215,0.45-0.412,0.691-0.601
	c0.062-0.049,0.126-0.096,0.189-0.142c0.194-0.144,0.394-0.28,0.599-0.409c0.06-0.038,0.118-0.078,0.179-0.114
	c0.249-0.149,0.503-0.288,0.763-0.417c0.094-0.046,0.189-0.088,0.284-0.132c0.166-0.078,0.333-0.152,0.502-0.222
	c0.132-0.055,0.263-0.109,0.395-0.159c0.114-0.043,0.228-0.082,0.342-0.123c1.069-0.375,2.131-0.615,3.048-0.76
	c0.283,0.435,0.472,0.974,0.472,1.608v11.68c0,1.653-1.344,2.997-2.997,2.997h-3.986c-4.103,0-7.453,3.279-7.541,7.38
	c-0.291,13.535-6.032,26.097-15.75,34.466c-3.304,2.845-6.777,5.235-10.404,7.182c-0.048,0.025-0.096,0.048-0.143,0.074
	c-7.497,3.995-15.654,6.076-24.382,6.186c-8.954-0.112-17.312-2.29-24.969-6.492c-0.173-0.109-0.349-0.212-0.531-0.306
	c-3.275-1.846-6.423-4.055-9.43-6.643C211.354,159.625,205.614,147.063,205.323,133.527z M281.568,196.435
	c-6.875,6.396-15.963,10.032-25.427,10.062c-0.039,0-0.077,0-0.116,0c-9.765,0-19.148-3.838-26.119-10.603
	c0.87-1.187,1.639-2.462,2.287-3.8c7.46,2.851,15.385,4.333,23.725,4.427c0.028,0,0.056,0,0.084,0s0.056,0,0.084,0
	c8.043-0.09,15.696-1.485,22.922-4.14C279.729,193.821,280.592,195.181,281.568,196.435z M215.705,202.816l1.385,1.526
	c9.952,10.962,24.134,17.24,38.935,17.24c0.054,0,0.109,0,0.163,0c14.859-0.046,29.07-6.418,38.988-17.481l1.152-1.285h2.5
	l-42.848,65.847l-42.847-65.847L215.705,202.816L215.705,202.816z M195.136,202.816l47.446,72.914
	c-0.238,0.091-0.472,0.192-0.708,0.288c-0.187,0.076-0.375,0.149-0.56,0.228c-1.068,0.455-2.114,0.962-3.136,1.516
	c-0.024,0.013-0.047,0.027-0.071,0.04c-0.338,0.184-0.676,0.368-1.008,0.563l-49.16-75.549L195.136,202.816L195.136,202.816z
	 M30.443,28.113c4.242-5.538,10.676-8.715,17.654-8.715c12.129,0,22.808,8.178,25.969,19.888l27.437,101.638L56.75,159.016
	L26.629,47.429C24.81,40.693,26.2,33.653,30.443,28.113z"/>
<g>
</g>
<g>
</g>
<g>
</g>
<g>
</g>
<g>
</g>
<g>
</g>
<g>
</g>
<g>
</g>
<g>
</g>
<g>
</g>
<g>
</g>
<g>
</g>
<g>
</g>
<g>
</g>
<g>
</g>
</svg>
